<?xml version="1.0" encoding="utf-8"?>
<!-- Generator: Adobe Illustrator 21.0.2, SVG Export Plug-In . SVG Version: 6.00 Build 0)  -->
<svg version="1.1" id="skills_1_" xmlns="http://www.w3.org/2000/svg" xmlns:xlink="http://www.w3.org/1999/xlink" x="0px" y="0px"
	 viewBox="0 0 19.2 19.2" style="enable-background:new 0 0 19.2 19.2;" xml:space="preserve">
<style type="text/css">
	.st0{fill-rule:evenodd;clip-rule:evenodd;fill:#0D0D0D;}
</style>
<g id="Ellipse_734">
	<g>
		<path class="st0" d="M9.7,5.2c-2.4,0-4.4,2-4.4,4.4s2,4.4,4.4,4.4s4.4-2,4.4-4.4S12.2,5.2,9.7,5.2z M9.7,12.2
			c-1.4,0-2.6-1.2-2.6-2.6S8.3,7,9.7,7c1.4,0,2.6,1.2,2.6,2.6S11.1,12.2,9.7,12.2z"/>
	</g>
</g>
<g id="Ellipse_736">
	<g>
		<path class="st0" d="M8.3,10.4c0-1.1,0.9-2,2-2c0.5,0,1,0.2,1.4,0.6c-0.3-0.8-1-1.5-1.9-1.5c-1.1,0-2,0.9-2,2
			c0,0.6,0.3,1.2,0.8,1.6C8.4,11,8.3,10.7,8.3,10.4z"/>
	</g>
</g>
<g id="cogfresh_1_">
	<g id="Ellipse_737">
		<g>
			<path class="st0" d="M4.7,9.6c0-0.7,0.1-1.3,0.4-1.9c-0.9,0-2.6,0.1-2.6,0.8v2.1c0,0.7,1.7,0.9,2.6,0.9
				C4.8,10.9,4.7,10.2,4.7,9.6z M10.8,2.3H8.8C8,2.3,7.9,4.1,7.9,4.9c0.6-0.2,1.2-0.4,1.8-0.4c0.7,0,1.3,0.1,1.9,0.4
				C11.6,4.1,11.5,2.3,10.8,2.3z M5.4,3.6C4.8,4.2,4.6,4.4,3.9,5.1C3.4,5.6,4.5,7,5.1,7.6C5.7,6.4,6.6,5.5,7.8,5
				C7.2,4.4,5.8,3.2,5.4,3.6z M14.3,7.6c0.6-0.6,1.8-2,1.4-2.4l-1.5-1.5c-0.5-0.5-1.9,0.7-2.5,1.3C12.9,5.5,13.8,6.5,14.3,7.6z
				 M11.7,14.2c0.6,0.6,2,1.8,2.5,1.3c0.7-0.7,0.9-0.9,1.5-1.5c0.5-0.5-0.8-1.8-1.3-2.4C13.8,12.7,12.9,13.7,11.7,14.2z M14.4,7.7
				c0.2,0.6,0.4,1.2,0.4,1.9c0,0.7-0.1,1.3-0.4,1.8c0.8,0,2.7-0.1,2.7-0.9V8.5C17.1,7.8,15.2,7.7,14.4,7.7z M5.1,11.6
				c-0.6,0.6-1.8,1.9-1.2,2.5l1.5,1.5c0.5,0.5,1.8-0.7,2.4-1.3C6.6,13.7,5.6,12.8,5.1,11.6z M7.9,14.3c0,0.9,0.1,2.6,0.9,2.6h2.1
				c0.6,0,0.8-1.8,0.8-2.6c-0.6,0.2-1.2,0.4-1.9,0.4C9.1,14.6,8.5,14.5,7.9,14.3z"/>
		</g>
	</g>
</g>
</svg>
