<?xml version="1.0" standalone="no"?>
<!DOCTYPE svg PUBLIC "-//W3C//DTD SVG 20010904//EN"
 "http://www.w3.org/TR/2001/REC-SVG-20010904/DTD/svg10.dtd">
<svg version="1.0" xmlns="http://www.w3.org/2000/svg"
 width="260.000000pt" height="260.000000pt" viewBox="0 0 260.000000 260.000000"
 preserveAspectRatio="xMidYMid meet">
<metadata>
Created by potrace 1.11, written by Peter Selinger 2001-2013
</metadata>
<g transform="translate(0.000000,260.000000) scale(0.100000,-0.100000)"
fill="#000000" stroke="none">
<path d="M1120 2355 c-124 -21 -282 -81 -396 -151 -80 -49 -199 -158 -257
-234 -23 -30 -44 -57 -48 -60 -10 -9 -47 -75 -80 -140 -38 -76 -74 -180 -84
-241 -4 -24 -10 -53 -12 -64 -3 -11 -7 -76 -8 -145 -3 -122 10 -228 37 -310 7
-19 13 -40 14 -46 6 -34 74 -170 119 -239 129 -196 313 -343 527 -420 51 -18
109 -36 128 -39 19 -3 46 -8 60 -12 89 -22 369 -7 450 24 14 5 30 10 35 11 20
1 131 46 175 70 25 13 54 29 65 35 141 76 343 298 407 446 9 19 23 51 31 70
53 122 77 266 72 435 -5 182 -48 331 -145 500 -114 201 -326 378 -552 461
-154 57 -370 77 -538 49z m350 -59 c14 -3 34 -8 45 -10 56 -11 189 -62 262
-102 190 -103 327 -249 422 -448 72 -150 91 -231 96 -406 9 -282 -91 -534
-293 -735 -151 -150 -349 -251 -557 -284 -145 -23 -347 -2 -501 52 -166 59
-357 205 -462 352 -61 86 -104 170 -141 281 -38 113 -41 134 -46 279 -17 491
316 912 805 1015 63 14 118 17 215 15 72 -2 141 -6 155 -9z"/>
<path d="M1145 2180 c-209 -36 -427 -168 -555 -338 -268 -356 -234 -849 80
-1162 262 -263 656 -334 996 -180 199 90 375 277 454 483 224 576 -201 1204
-815 1205 -60 0 -132 -4 -160 -8z"/>
</g>
</svg>
